<svg xmlns="http://www.w3.org/2000/svg" xmlns:xlink="http://www.w3.org/1999/xlink" width="83" zoomAndPan="magnify" viewBox="0 0 62.25 83.999997" height="112" preserveAspectRatio="xMidYMid meet" version="1.0"><defs><g/><clipPath id="38b8207710"><path d="M 0 14.730469 L 61.507812 14.730469 L 61.507812 83.5 L 0 83.5 Z M 0 14.730469 " clip-rule="nonzero"/></clipPath></defs><g clip-path="url(#38b8207710)"><path fill="#000000" d="M 0.503906 12.921875 L 0.503906 0.828125 C 0.503906 0.707031 0.5625 0.648438 0.679688 0.648438 L 4.453125 0.648438 C 6.136719 0.648438 7.527344 1.183594 8.632812 2.25 C 9.746094 3.316406 10.304688 4.859375 10.304688 6.875 C 10.304688 8.890625 9.746094 10.429688 8.632812 11.496094 C 7.527344 12.566406 6.136719 13.097656 4.453125 13.097656 L 0.679688 13.097656 C 0.5625 13.097656 0.503906 13.039062 0.503906 12.921875 Z M 4.34375 2.710938 L 2.746094 2.710938 L 2.746094 11.035156 L 4.34375 11.035156 C 5.449219 11.035156 6.332031 10.683594 6.996094 9.984375 C 7.660156 9.285156 7.992188 8.25 7.992188 6.875 C 7.992188 5.496094 7.660156 4.460938 6.996094 3.761719 C 6.332031 3.0625 5.449219 2.710938 4.34375 2.710938 Z M 19.570312 12.921875 L 18.503906 9.808594 L 14.09375 9.808594 L 13.023438 12.921875 C 12.988281 13.039062 12.917969 13.097656 12.8125 13.097656 L 10.871094 13.097656 C 10.742188 13.097656 10.675781 13.039062 10.675781 12.921875 C 10.675781 12.886719 10.683594 12.847656 10.695312 12.8125 L 15.070312 0.828125 C 15.105469 0.707031 15.164062 0.648438 15.25 0.648438 L 17.347656 0.648438 C 17.429688 0.648438 17.488281 0.707031 17.523438 0.828125 L 21.898438 12.8125 C 21.910156 12.847656 21.917969 12.886719 21.917969 12.921875 C 21.917969 13.039062 21.851562 13.097656 21.722656 13.097656 L 19.785156 13.097656 C 19.675781 13.097656 19.605469 13.039062 19.570312 12.921875 Z M 16.296875 3.40625 L 14.804688 7.746094 L 17.792969 7.746094 Z M 31.117188 13.097656 L 33.019531 13.097656 C 33.136719 13.097656 33.195312 13.039062 33.195312 12.921875 L 33.195312 0.828125 C 33.195312 0.707031 33.136719 0.648438 33.019531 0.648438 L 31.097656 0.648438 C 30.980469 0.648438 30.921875 0.707031 30.921875 0.828125 L 30.921875 9.222656 L 25.671875 0.789062 C 25.613281 0.695312 25.519531 0.648438 25.390625 0.648438 L 23.484375 0.648438 C 23.367188 0.648438 23.308594 0.707031 23.308594 0.828125 L 23.308594 12.921875 C 23.308594 13.039062 23.367188 13.097656 23.484375 13.097656 L 25.40625 13.097656 C 25.527344 13.097656 25.585938 13.039062 25.585938 12.921875 L 25.585938 4.527344 L 30.832031 12.957031 C 30.890625 13.050781 30.984375 13.097656 31.117188 13.097656 Z M 60.996094 81.9375 C 61.539062 81.9375 61.460938 80.898438 61.382812 80.453125 C 61.460938 80.453125 61.460938 80.378906 61.460938 80.378906 C 61.617188 79.789062 61.382812 78.824219 60.917969 78.378906 C 57.035156 74.894531 54.316406 70.519531 53.074219 65.699219 C 53.066406 65.675781 53.054688 65.65625 53.046875 65.628906 C 52.875 65.214844 52.496094 64.296875 51.910156 64.4375 C 51.289062 64.660156 51.441406 65.625 51.519531 66.066406 C 52.453125 69.554688 54.003906 72.890625 56.101562 75.855469 C 51.753906 74.523438 47.480469 73.1875 43.289062 71.554688 C 35.523438 68.515625 27.988281 64.214844 22.710938 57.761719 C 20.070312 54.5 18.359375 50.867188 17.429688 46.863281 C 16.417969 42.558594 16.339844 38.035156 16.652344 33.660156 C 16.730469 32.992188 16.417969 32.105469 15.875 31.734375 C 15.332031 31.363281 15.019531 32.03125 15.019531 32.476562 C 14.554688 37.8125 14.867188 43.300781 16.339844 48.566406 C 17.585938 52.941406 19.679688 57.019531 22.710938 60.582031 C 25.425781 63.769531 28.765625 66.511719 32.339844 68.8125 C 40.105469 73.78125 49.113281 76.523438 57.964844 79.195312 C 52.296875 79.417969 46.628906 79.863281 40.960938 80.601562 C 40.261719 80.675781 40.492188 81.863281 40.570312 82.234375 C 40.726562 82.753906 41.113281 83.570312 41.734375 83.496094 C 48.105469 82.679688 54.550781 82.160156 60.996094 81.9375 Z M 60.996094 81.9375 " fill-opacity="1" fill-rule="evenodd"/></g><g fill="#000000" fill-opacity="1"><g transform="translate(1.4786, 16.507141)"><g><path d="M 8.6875 -2.75 L 3.296875 -2.75 L 2.296875 0 L 0.59375 0 L 5.0625 -12.328125 L 6.9375 -12.328125 L 11.390625 0 L 9.6875 0 Z M 8.234375 -4.078125 L 6 -10.328125 L 3.75 -4.078125 Z M 8.234375 -4.078125 "/></g></g></g><g fill="#000000" fill-opacity="1"><g transform="translate(13.163776, 16.507141)"><g><path d="M 5.296875 0.125 C 4.484375 0.125 3.753906 -0.0195312 3.109375 -0.3125 C 2.460938 -0.601562 1.953125 -1.003906 1.578125 -1.515625 C 1.210938 -2.035156 1.023438 -2.632812 1.015625 -3.3125 L 2.734375 -3.3125 C 2.796875 -2.726562 3.035156 -2.238281 3.453125 -1.84375 C 3.878906 -1.445312 4.492188 -1.25 5.296875 -1.25 C 6.066406 -1.25 6.671875 -1.441406 7.109375 -1.828125 C 7.554688 -2.210938 7.78125 -2.707031 7.78125 -3.3125 C 7.78125 -3.78125 7.648438 -4.160156 7.390625 -4.453125 C 7.128906 -4.753906 6.800781 -4.984375 6.40625 -5.140625 C 6.019531 -5.296875 5.5 -5.460938 4.84375 -5.640625 C 4.019531 -5.847656 3.363281 -6.054688 2.875 -6.265625 C 2.382812 -6.484375 1.960938 -6.820312 1.609375 -7.28125 C 1.253906 -7.738281 1.078125 -8.351562 1.078125 -9.125 C 1.078125 -9.800781 1.25 -10.398438 1.59375 -10.921875 C 1.9375 -11.441406 2.421875 -11.84375 3.046875 -12.125 C 3.671875 -12.40625 4.382812 -12.546875 5.1875 -12.546875 C 6.351562 -12.546875 7.304688 -12.253906 8.046875 -11.671875 C 8.785156 -11.097656 9.203125 -10.332031 9.296875 -9.375 L 7.515625 -9.375 C 7.460938 -9.84375 7.210938 -10.257812 6.765625 -10.625 C 6.328125 -10.988281 5.75 -11.171875 5.03125 -11.171875 C 4.351562 -11.171875 3.800781 -10.992188 3.375 -10.640625 C 2.945312 -10.296875 2.734375 -9.804688 2.734375 -9.171875 C 2.734375 -8.722656 2.859375 -8.351562 3.109375 -8.0625 C 3.367188 -7.78125 3.6875 -7.566406 4.0625 -7.421875 C 4.4375 -7.273438 4.960938 -7.109375 5.640625 -6.921875 C 6.453125 -6.691406 7.109375 -6.46875 7.609375 -6.25 C 8.109375 -6.03125 8.535156 -5.691406 8.890625 -5.234375 C 9.242188 -4.773438 9.421875 -4.15625 9.421875 -3.375 C 9.421875 -2.769531 9.257812 -2.203125 8.9375 -1.671875 C 8.625 -1.140625 8.148438 -0.707031 7.515625 -0.375 C 6.890625 -0.0390625 6.148438 0.125 5.296875 0.125 Z M 5.296875 0.125 "/></g></g></g><g fill="#000000" fill-opacity="1"><g transform="translate(23.301597, 16.507141)"><g><path d="M 10.921875 -12.390625 L 10.921875 0 L 9.296875 0 L 9.296875 -5.625 L 2.984375 -5.625 L 2.984375 0 L 1.375 0 L 1.375 -12.390625 L 2.984375 -12.390625 L 2.984375 -6.953125 L 9.296875 -6.953125 L 9.296875 -12.390625 Z M 10.921875 -12.390625 "/></g></g></g><g fill="#000000" fill-opacity="1"><g transform="translate(35.306921, 16.507141)"><g><path d="M 2.984375 -12.390625 L 2.984375 0 L 1.375 0 L 1.375 -12.390625 Z M 2.984375 -12.390625 "/></g></g></g><g fill="#000000" fill-opacity="1"><g transform="translate(39.379831, 16.507141)"><g><path d="M 9 -12.390625 L 9 -11.078125 L 5.625 -11.078125 L 5.625 0 L 4 0 L 4 -11.078125 L 0.609375 -11.078125 L 0.609375 -12.390625 Z M 9 -12.390625 "/></g></g></g><g fill="#000000" fill-opacity="1"><g transform="translate(48.699517, 16.507141)"><g><path d="M 8.6875 -2.75 L 3.296875 -2.75 L 2.296875 0 L 0.59375 0 L 5.0625 -12.328125 L 6.9375 -12.328125 L 11.390625 0 L 9.6875 0 Z M 8.234375 -4.078125 L 6 -10.328125 L 3.75 -4.078125 Z M 8.234375 -4.078125 "/></g></g></g></svg>