<svg xmlns="http://www.w3.org/2000/svg" xmlns:xlink="http://www.w3.org/1999/xlink" width="83" zoomAndPan="magnify" viewBox="0 0 62.25 83.999997" height="112" preserveAspectRatio="xMidYMid meet" version="1.0"><defs><g/><clipPath id="5c8ad4a6b3"><path d="M 0 14.730469 L 61.507812 14.730469 L 61.507812 83.5 L 0 83.5 Z M 0 14.730469 " clip-rule="nonzero"/></clipPath></defs><g clip-path="url(#5c8ad4a6b3)"><path fill="#000000" d="M 61.003906 12.921875 L 61.003906 0.828125 C 61.003906 0.707031 60.945312 0.648438 60.828125 0.648438 L 57.058594 0.648438 C 55.375 0.648438 53.980469 1.183594 52.878906 2.25 C 51.761719 3.316406 51.207031 4.859375 51.207031 6.875 C 51.207031 8.890625 51.761719 10.429688 52.878906 11.496094 C 53.980469 12.566406 55.375 13.097656 57.058594 13.097656 L 60.828125 13.097656 C 60.945312 13.097656 61.003906 13.039062 61.003906 12.921875 Z M 57.164062 2.710938 L 58.765625 2.710938 L 58.765625 11.035156 L 57.164062 11.035156 C 56.0625 11.035156 55.175781 10.683594 54.511719 9.984375 C 53.847656 9.285156 53.515625 8.25 53.515625 6.875 C 53.515625 5.496094 53.847656 4.460938 54.511719 3.761719 C 55.175781 3.0625 56.0625 2.710938 57.164062 2.710938 Z M 41.9375 12.921875 L 43.007812 9.808594 L 47.417969 9.808594 L 48.484375 12.921875 C 48.519531 13.039062 48.589844 13.097656 48.699219 13.097656 L 50.636719 13.097656 C 50.765625 13.097656 50.832031 13.039062 50.832031 12.921875 C 50.832031 12.886719 50.824219 12.847656 50.8125 12.8125 L 46.4375 0.828125 C 46.402344 0.707031 46.34375 0.648438 46.261719 0.648438 L 44.164062 0.648438 C 44.078125 0.648438 44.019531 0.707031 43.984375 0.828125 L 39.609375 12.8125 C 39.597656 12.847656 39.589844 12.886719 39.589844 12.921875 C 39.589844 13.039062 39.65625 13.097656 39.785156 13.097656 L 41.726562 13.097656 C 41.832031 13.097656 41.902344 13.039062 41.9375 12.921875 Z M 45.210938 3.40625 L 46.707031 7.746094 L 43.71875 7.746094 Z M 30.394531 13.097656 L 28.488281 13.097656 C 28.371094 13.097656 28.3125 13.039062 28.3125 12.921875 L 28.3125 0.828125 C 28.3125 0.707031 28.371094 0.648438 28.488281 0.648438 L 30.410156 0.648438 C 30.527344 0.648438 30.589844 0.707031 30.589844 0.828125 L 30.589844 9.222656 L 35.835938 0.789062 C 35.894531 0.695312 35.988281 0.648438 36.121094 0.648438 L 38.023438 0.648438 C 38.140625 0.648438 38.199219 0.707031 38.199219 0.828125 L 38.199219 12.921875 C 38.199219 13.039062 38.140625 13.097656 38.023438 13.097656 L 36.101562 13.097656 C 35.984375 13.097656 35.925781 13.039062 35.925781 12.921875 L 35.925781 4.527344 L 30.675781 12.957031 C 30.617188 13.050781 30.523438 13.097656 30.394531 13.097656 Z M 0.515625 81.9375 C -0.03125 81.9375 0.046875 80.898438 0.125 80.453125 C 0.046875 80.453125 0.046875 80.378906 0.046875 80.378906 C -0.105469 79.789062 0.125 78.824219 0.59375 78.378906 C 4.476562 74.894531 7.191406 70.519531 8.433594 65.699219 C 8.445312 65.675781 8.453125 65.65625 8.464844 65.628906 C 8.632812 65.214844 9.011719 64.296875 9.601562 64.4375 C 10.222656 64.660156 10.066406 65.625 9.988281 66.066406 C 9.054688 69.554688 7.503906 72.890625 5.40625 75.855469 C 9.753906 74.523438 14.027344 73.1875 18.21875 71.554688 C 25.984375 68.515625 33.519531 64.214844 38.800781 57.761719 C 41.441406 54.5 43.148438 50.867188 44.082031 46.863281 C 45.089844 42.558594 45.167969 38.035156 44.855469 33.660156 C 44.777344 32.992188 45.089844 32.105469 45.632812 31.734375 C 46.175781 31.363281 46.488281 32.03125 46.488281 32.476562 C 46.953125 37.8125 46.644531 43.300781 45.167969 48.566406 C 43.925781 52.941406 41.828125 57.019531 38.800781 60.582031 C 36.082031 63.769531 32.742188 66.511719 29.171875 68.8125 C 21.402344 73.78125 12.394531 76.523438 3.542969 79.195312 C 9.210938 79.417969 14.882812 79.863281 20.550781 80.601562 C 21.25 80.675781 21.015625 81.863281 20.9375 82.234375 C 20.78125 82.753906 20.394531 83.570312 19.773438 83.496094 C 13.40625 82.679688 6.960938 82.160156 0.515625 81.9375 Z M 0.515625 81.9375 " fill-opacity="1" fill-rule="evenodd"/></g><g fill="#000000" fill-opacity="1"><g transform="translate(3.236321, 18.532741)"><g><path d="M 9.65625 -3.0625 L 3.65625 -3.0625 L 2.546875 0 L 0.65625 0 L 5.625 -13.6875 L 7.703125 -13.6875 L 12.65625 0 L 10.765625 0 Z M 9.140625 -4.515625 L 6.65625 -11.46875 L 4.171875 -4.515625 Z M 9.140625 -4.515625 "/></g></g></g><g fill="#000000" fill-opacity="1"><g transform="translate(16.214641, 18.532741)"><g><path d="M 3.3125 -13.765625 L 3.3125 0 L 1.515625 0 L 1.515625 -13.765625 Z M 3.3125 -13.765625 "/></g></g></g><g fill="#000000" fill-opacity="1"><g transform="translate(20.738205, 18.532741)"><g><path d="M 5.8125 -13.765625 C 7.3125 -13.765625 8.609375 -13.484375 9.703125 -12.921875 C 10.804688 -12.367188 11.648438 -11.570312 12.234375 -10.53125 C 12.816406 -9.488281 13.109375 -8.265625 13.109375 -6.859375 C 13.109375 -5.441406 12.816406 -4.21875 12.234375 -3.1875 C 11.648438 -2.15625 10.804688 -1.363281 9.703125 -0.8125 C 8.609375 -0.269531 7.3125 0 5.8125 0 L 1.515625 0 L 1.515625 -13.765625 Z M 5.8125 -1.484375 C 7.582031 -1.484375 8.9375 -1.953125 9.875 -2.890625 C 10.8125 -3.835938 11.28125 -5.160156 11.28125 -6.859375 C 11.28125 -8.566406 10.804688 -9.898438 9.859375 -10.859375 C 8.921875 -11.816406 7.570312 -12.296875 5.8125 -12.296875 L 3.3125 -12.296875 L 3.3125 -1.484375 Z M 5.8125 -1.484375 "/></g></g></g><g fill="#000000" fill-opacity="1"><g transform="translate(34.36841, 18.532741)"><g><path d="M 9.65625 -3.0625 L 3.65625 -3.0625 L 2.546875 0 L 0.65625 0 L 5.625 -13.6875 L 7.703125 -13.6875 L 12.65625 0 L 10.765625 0 Z M 9.140625 -4.515625 L 6.65625 -11.46875 L 4.171875 -4.515625 Z M 9.140625 -4.515625 "/></g></g></g><g fill="#000000" fill-opacity="1"><g transform="translate(47.346732, 18.532741)"><g><path d="M 12.34375 0 L 10.546875 0 L 3.3125 -10.96875 L 3.3125 0 L 1.515625 0 L 1.515625 -13.78125 L 3.3125 -13.78125 L 10.546875 -2.84375 L 10.546875 -13.78125 L 12.34375 -13.78125 Z M 12.34375 0 "/></g></g></g></svg>