<?xml version="1.0" encoding="UTF-8" standalone="no"?>
<!-- Created with Inkscape (http://www.inkscape.org/) -->

<svg
   width="190.94952mm"
   height="58.121685mm"
   viewBox="0 0 190.94952 58.121685"
   version="1.1"
   id="svg5"
   sodipodi:docname="Latham &amp; Watkins (Stacked).svg"
   inkscape:version="1.1.2 (b8e25be833, 2022-02-05)"
   xmlns:inkscape="http://www.inkscape.org/namespaces/inkscape"
   xmlns:sodipodi="http://sodipodi.sourceforge.net/DTD/sodipodi-0.dtd"
   xmlns="http://www.w3.org/2000/svg"
   xmlns:svg="http://www.w3.org/2000/svg">
  <sodipodi:namedview
     id="namedview7"
     pagecolor="#ffffff"
     bordercolor="#666666"
     borderopacity="1.0"
     inkscape:pageshadow="2"
     inkscape:pageopacity="0.0"
     inkscape:pagecheckerboard="0"
     inkscape:document-units="mm"
     showgrid="false"
     inkscape:zoom="0.45291836"
     inkscape:cx="98.251703"
     inkscape:cy="207.54292"
     inkscape:window-width="1920"
     inkscape:window-height="1017"
     inkscape:window-x="-8"
     inkscape:window-y="-8"
     inkscape:window-maximized="1"
     inkscape:current-layer="layer1" />
  <defs
     id="defs2" />
  <g
     inkscape:label="Layer 1"
     inkscape:groupmode="layer"
     id="layer1"
     transform="translate(-73.351657,-43.840994)">
    <g
       id="g9244"
       transform="matrix(0.50717004,0,0,0.50717004,73.351657,43.840994)"
       style="fill:#b4131d;fill-opacity:1">
      <path
         id="path276"
         class="st0"
         d="m 306.1,67.4 c -10.5,0 -16.6,5.5 -16.6,13.4 0,14.8 19.8,10.7 19.8,20.3 0,5 -4.1,7.1 -9,7.1 -3.3,0 -6.8,-0.8 -9.4,-1.7 l -0.3,6.9 c 2.6,0.7 5.8,1.2 9,1.2 10.8,0 17.3,-6.2 17.3,-14.6 0,-14.3 -19.7,-10.9 -19.7,-20.1 0,-3.8 2.8,-6.5 8.4,-6.5 2.7,0 5.6,0.5 8.2,1.3 l 0.4,-6.5 c -2.7,-0.4 -5.5,-0.8 -8.1,-0.8 z M 14.4,0 V 47.8 H 42.7 V 41.2 H 21.9 V 0 Z M 71.3,0 54.5,47.8 h 7.6 l 3.5,-10.5 h 19.1 l 3.7,10.5 h 8.4 L 79.8,0 Z m 33.5,0 v 6.5 h 12.9 v 41.2 h 7.6 V 6.5 h 13 V 0 Z m 47.7,0 V 47.8 H 160 V 26.4 h 22.3 v 21.4 h 7.5 V 0 h -7.5 V 19.7 H 160 V 0 Z M 221.8,0 205,47.8 h 7.6 l 3.7,-10.5 h 19.1 l 3.5,10.5 h 8.4 L 230.2,0 Z m 45.4,0 -7,47.8 h 7.8 l 3,-24.7 c 0.5,-4.5 0.9,-8.2 1.2,-12.3 0.7,3.5 1.8,7.6 3.1,11.3 l 8.4,25.7 h 7.9 l 8.9,-27.7 c 1.2,-3.5 1.9,-6.6 2.4,-9.3 0.5,3.1 0.9,6.5 1.7,11.6 l 3.7,25.4 h 8 L 309,0 h -9.1 l -9.2,27.9 c -1.1,3.5 -2,5.9 -2.7,9.4 -0.7,-3.1 -1.6,-6.3 -2.7,-9.8 L 276.3,0 Z M 0,68 11.7,113.8 h 8.5 l 7.7,-28.4 c 0.7,-2.9 1.3,-5.7 1.6,-8.5 0.5,2.9 1,5.8 1.8,8.6 l 7.7,28.3 h 8.9 L 59.6,68 h -7.2 l -7,28.7 c -0.7,2.5 -1.1,5.1 -1.6,8 -0.5,-2.9 -1.2,-6 -1.9,-8.4 L 33.9,68 h -8 l -7.7,28.2 c -0.8,2.8 -1.3,5.7 -1.8,8.7 -0.5,-3.1 -1,-6.1 -1.8,-9 L 7.8,68 Z m 82.5,0 -16.2,45.8 h 7.3 l 3.5,-10.1 h 18.3 l 3.4,10.1 h 8.1 L 90.6,68 Z m 30.2,0 v 6.3 H 125 v 39.6 h 7.2 V 74.3 h 12.4 V 68 Z m 47.2,0 v 45.8 h 7.2 V 91.5 l 16.4,22.3 h 9.7 L 174.6,90.1 192.6,68 h -8.9 L 167.2,89.3 V 68 Z m 48.5,0 v 45.8 h 7.3 V 68 Z m 27.7,0 v 45.8 h 7 V 98.5 c 0,-6.5 -0.2,-15.8 -0.4,-20.3 1.4,3.1 3.1,6.4 5.1,9.7 l 15.4,26.1 h 9.4 V 68 h -7 v 13.6 c 0,6.7 0.2,16.6 0.4,21.8 -1.7,-3.3 -3.4,-7 -5.4,-10.4 l -15,-25 z M 75.1,8.8 c 0.7,2.6 1.3,4.8 2.2,7.3 l 5.4,15.1 h -15 L 73,16.3 c 0.9,-2.6 1.6,-5.1 2.1,-7.5 z m 150.6,0 c 0.7,2.6 1.3,4.8 2.2,7.3 l 5.3,15.1 h -15 l 5.2,-14.8 c 1,-2.7 1.8,-5.2 2.3,-7.6 z M 86.3,76.4 c 0.7,2.5 1.3,4.6 2.1,7 l 5.1,14.5 H 79.1 l 5,-14.3 c 0.9,-2.4 1.7,-4.9 2.2,-7.2 z M 339.7,10.1 c -3.8,0 -6.6,2.6 -6.6,6 0,1.6 0.1,2.5 1,3.8 -2.9,1.2 -4.9,4.7 -4.9,8.1 0,5.5 5.2,9.1 10.5,9.1 3.7,0 7.1,-1.4 9.8,-4.1 l 4.7,3.5 1.8,-2 -4.8,-3.9 c 1.3,-2.3 1.5,-4.1 1.4,-6.1 -0.1,-2 -0.8,-3.8 -1.2,-4.3 l -2.4,0.9 c 0.5,0.6 1.1,2 1.1,4.1 0,1.7 -0.1,2.2 -0.9,3.7 l -6.9,-5.7 c 2.4,-1.9 4,-3.7 4,-6.9 -0.1,-3.4 -3.1,-6.2 -6.6,-6.2 z m -8,69.8 v 20.5 h 11.8 v -2.9 h -8.8 V 79.9 Z m 16.2,0 v 20.5 h 11.7 v -2.9 h -8.8 V 79.9 Z m 15.9,0 v 20.5 h 2.9 v -7.9 h 3.2 c 4.7,0 6.6,-2.9 6.6,-6.4 0,-3.4 -1.9,-6.3 -6.6,-6.3 h -6.1 z m -24.3,-67 c 2.6,0 3.9,1.5 3.9,3.4 0,2.5 -1.6,4.1 -3.3,5.1 -2.5,-2 -4,-2.9 -4,-5 -0.1,-2 0.8,-3.5 3.4,-3.5 z m 27.2,69.4 h 2.9 c 3.1,0 4.4,1.8 4.4,3.8 0,1.9 -0.9,4 -4,4 h -3.2 V 82.3 Z M 336.3,22 l 11.1,9.1 c -1.7,2 -5,2.8 -7.5,2.8 -3.6,-0.1 -7.4,-1.9 -7.4,-6.1 -0.1,-2.6 1.3,-4.4 3.8,-5.8 z"
         style="fill:#b4131d;fill-opacity:1" />
    </g>
  </g>
  <style
     type="text/css"
     id="style835">
	.st0{fill:#B4131D;}
</style>
  <style
     type="text/css"
     id="style9241">
	.st0{fill:#B4131D;}
</style>
</svg>
